<?xml version="1.0" standalone="no"?>
<!DOCTYPE svg PUBLIC "-//W3C//DTD SVG 20010904//EN"
 "http://www.w3.org/TR/2001/REC-SVG-20010904/DTD/svg10.dtd">
<svg version="1.0" xmlns="http://www.w3.org/2000/svg"
 width="512.000000pt" height="512.000000pt" viewBox="0 0 512.000000 512.000000"
 preserveAspectRatio="xMidYMid meet">

<g transform="translate(0.000000,512.000000) scale(0.100000,-0.100000)"
fill="#000000" stroke="none">
<path d="M635 4452 c-109 -38 -217 -128 -264 -220 -56 -110 -65 -259 -22 -372
41 -109 148 -217 258 -261 l58 -24 1875 -3 c2057 -2 1918 -6 2033 56 63 34
148 126 181 196 107 225 13 492 -212 603 l-76 38 -1890 2 c-1774 2 -1894 1
-1941 -15z"/>
<path d="M629 2987 c-80 -27 -136 -64 -194 -129 -216 -240 -106 -633 203 -728
63 -20 100 -20 1922 -20 1792 0 1860 1 1919 19 85 26 140 61 199 126 160 175
160 435 0 610 -59 65 -114 100 -199 126 -59 18 -127 19 -1922 19 l-1862 -1
-66 -22z"/>
<path d="M650 1534 c-155 -42 -285 -181 -319 -342 -43 -207 61 -412 256 -505
l68 -32 1905 0 1905 0 68 32 c88 42 175 124 216 207 107 209 31 472 -170 593
-112 67 19 63 -2024 62 -1595 0 -1858 -2 -1905 -15z"/>
</g>
</svg>
